<svg width="40" height="40" viewBox="0 0 40 40" fill="none" xmlns="http://www.w3.org/2000/svg">
<rect width="40" height="40" rx="20" fill="#D8863A"/>
<path d="M11.2693 23.084C11.9629 21.6266 12.3097 20.8978 12.9139 20.4765C12.9628 20.4425 13.0126 20.4101 13.0634 20.3795C13.6923 20 14.4615 20 16 20C17.5385 20 18.3077 20 18.9366 20.3795C18.9874 20.4101 19.0372 20.4425 19.086 20.4765C19.6903 20.8978 20.0371 21.6266 20.7307 23.084C21.7648 25.2572 22.2819 26.3438 21.8433 27.1425C21.8268 27.1724 21.8095 27.2018 21.7914 27.2306C21.3077 28 20.1613 28 17.8687 28H14.1313C11.8386 28 10.6923 28 10.2086 27.2306C10.1905 27.2018 10.1732 27.1724 10.1567 27.1425C9.71814 26.3438 10.2352 25.2572 11.2693 23.084Z" stroke="white" stroke-width="1.5"/>
<path d="M22.5469 20.0207C22.9432 20 23.4158 20 23.9989 20C25.5374 20 26.3067 20 26.9356 20.3795C26.9863 20.4101 27.0362 20.4425 27.085 20.4765C27.6893 20.8978 28.036 21.6266 28.7296 23.084C29.7637 25.2572 30.2808 26.3438 29.8422 27.1425C29.8258 27.1724 29.8085 27.2018 29.7904 27.2306C29.3066 28 28.1603 28 25.8676 28H24.7391" stroke="white" stroke-width="1.5" stroke-linecap="round"/>
<path d="M25.6073 17C25.3908 16.4715 25.0923 15.8443 24.7306 15.0841C24.037 13.6266 23.6902 12.8978 23.086 12.4765C23.0372 12.4425 22.9873 12.4101 22.9365 12.3795C22.3076 12 21.5384 12 19.9999 12C18.4614 12 17.6922 12 17.0633 12.3795C17.0125 12.4101 16.9627 12.4425 16.9139 12.4765C16.3096 12.8978 15.9628 13.6266 15.2693 15.0841C14.9075 15.8443 14.609 16.4715 14.3926 17" stroke="white" stroke-width="1.5" stroke-linecap="round"/>
</svg>
