<svg width="40" height="40" viewBox="0 0 40 40" fill="none" xmlns="http://www.w3.org/2000/svg">
<rect width="40" height="40" rx="20" fill="#1DA7F5"/>
<path d="M29.3273 16.5111C29.3309 16.4754 29.3309 16.4394 29.3273 16.4037C29.3309 16.3536 29.3309 16.3033 29.3273 16.2533L27.1785 10.5229C27.1485 10.4523 27.1074 10.387 27.0567 10.3295C27.0567 10.3295 27.0567 10.3295 27.0567 10.2865C26.9878 10.2154 26.9048 10.1593 26.8131 10.1218H26.7773C26.6778 10.0573 26.5653 10.0158 26.4478 10H26.3762C26.3051 10.0115 26.2354 10.0307 26.1685 10.0573L20.4381 12.9225H20.3951C20.3522 12.9225 20.3307 12.9869 20.2949 13.0156C20.265 13.0407 20.2385 13.0696 20.2161 13.1016C20.1742 13.1638 20.1405 13.2312 20.1158 13.3021C20.1117 13.321 20.1117 13.3405 20.1158 13.3594L18.3107 20.9235L17.1145 17.6357C17.1145 17.6357 17.1145 17.6357 17.1145 17.5856C17.0861 17.5322 17.0525 17.4819 17.0142 17.4351L16.9354 17.342L16.8996 17.3062C16.8595 17.2812 16.8161 17.2619 16.7707 17.2489C16.7707 17.2489 16.7277 17.2059 16.6991 17.1988L12.4013 15.7662C12.3019 15.7347 12.1973 15.7225 12.0933 15.7304C12.0015 15.739 11.9119 15.7632 11.8283 15.802C11.7436 15.8441 11.6682 15.9025 11.6062 15.9739C11.5453 16.0454 11.4991 16.1281 11.4701 16.2174L10.0375 20.5152C10.0037 20.6157 9.99252 20.7224 10.0049 20.8277C10.0173 20.933 10.0529 21.0342 10.1091 21.1241L13.6906 26.8114L11.6349 28.8314C11.5677 28.898 11.5144 28.9772 11.4781 29.0645C11.4417 29.1518 11.423 29.2454 11.423 29.34C11.423 29.4345 11.4417 29.5281 11.4781 29.6154C11.5144 29.7027 11.5677 29.7819 11.6349 29.8485C11.7014 29.9157 11.7807 29.969 11.868 30.0053C11.9552 30.0417 12.0489 30.0604 12.1434 30.0604C12.238 30.0604 12.3316 30.0417 12.4189 30.0053C12.5062 29.969 12.5854 29.9157 12.652 29.8485L16.7993 25.694L19.156 28.0578C19.2908 28.1927 19.4738 28.2684 19.6645 28.2684C19.8553 28.2684 20.0382 28.1927 20.1731 28.0578C20.308 27.9229 20.3837 27.74 20.3837 27.5492C20.3837 27.3585 20.308 27.1755 20.1731 27.0407L19.6001 26.4748L20.3164 25.7585H22.5942L25.2445 28.4159C25.3111 28.4831 25.3903 28.5364 25.4776 28.5727C25.5648 28.6091 25.6585 28.6278 25.753 28.6278C25.8476 28.6278 25.9412 28.6091 26.0285 28.5727C26.1158 28.5364 26.195 28.4831 26.2616 28.4159C26.3287 28.3494 26.382 28.2701 26.4184 28.1828C26.4548 28.0956 26.4735 28.0019 26.4735 27.9074C26.4735 27.8128 26.4548 27.7192 26.4184 27.6319C26.382 27.5446 26.3287 27.4654 26.2616 27.3988L24.4565 25.6009L24.5067 25.5364L29.2414 16.7976C29.2447 16.7835 29.2447 16.7688 29.2414 16.7547C29.286 16.68 29.3152 16.5972 29.3273 16.5111ZM21.8134 13.8608L25.1084 12.199L23.4466 16.3535L21.8134 13.8608ZM26.4765 12.7004L27.7014 15.9739L24.8362 16.7905L26.4765 12.7004ZM12.2795 18.3162L13.1319 20.0281H11.6993L12.2795 18.3162ZM13.5545 17.6715L15.2736 18.2446L14.4141 19.3906L13.5545 17.6715ZM12.0002 21.4607H13.8482L15.5673 24.8989L14.7006 25.7585L12.0002 21.4607ZM16.7134 23.9821L15.1304 20.8232L16.2191 19.3906L18.368 25.2428L17.3294 24.197C17.2511 24.1149 17.1544 24.0527 17.0473 24.0153C16.9402 23.978 16.8257 23.9666 16.7134 23.9821ZM20.0227 24.3259C19.8693 24.3295 19.7212 24.3822 19.6001 24.4763L19.1774 23.3016C19.229 23.2257 19.2655 23.1406 19.2849 23.0509L21.0971 15.3579L22.8592 17.9939L20.918 24.2543C20.9145 24.278 20.9145 24.3022 20.918 24.3259H20.0227ZM23.4107 24.5551C23.344 24.4831 23.2631 24.4256 23.1731 24.3862C23.0832 24.3467 22.9861 24.3262 22.8879 24.3259H22.4008L24.17 18.4594L27.1785 17.6071L23.4107 24.5551Z" fill="white"/>
</svg>
